
<svg class="svg-graphic" viewBox="0 0 37 128" version="1.1" xmlns="http://www.w3.org/2000/svg" xmlns:xlink="http://www.w3.org/1999/xlink">
    <g id="Page-1" stroke="none" stroke-width="1" fill="none" fill-rule="evenodd">
        <g id="coffee214">
            <g id="Layer_1">
                <g id="LWPOLYLINE" class="svg-press svg-main-width" transform="translate(0.829268, 0.381570)" stroke="#7B7B7B" fill="#D8D8D8">
                    <polyline id="Shape" points="28.414878 88.8528221 28.414878 92.3270158 6.92658537 92.3270158 6.92658537 88.8528221"></polyline>
                    <polyline id="Shape" fill-opacity="0" points="30.0920325 84.2502751 30.0920325 35.3279554 5.24943089 35.3279554 5.24943089 84.2502751"></polyline>
                    <path d="M9.79686992,42.3310386 C7.90260163,44.1238441 6.95247967,46.7188541 7.22934959,49.3341218 L28.1121138,49.3341218 C28.3909756,46.7188541 27.4368699,44.1238441 25.5445935,42.3310386 L9.79686992,42.3310386 Z" id="Shape"></path>
                    <path d="M29.625935,5.26554443 L5.71552846,5.26554443 C4.94268293,5.03663254 4.33914634,4.42079879 4.11207317,3.63480044 C3.74756098,2.36464332 4.46463415,1.03371313 5.71552846,0.662997416 L29.625935,0.662997416 C30.3987805,0.891909306 31.0023171,1.50774306 31.2293902,2.29374141 C31.5919106,3.56389853 30.8748374,4.89482872 29.625935,5.26554443 Z" id="Shape" fill-opacity="0"></path>
                    <g id="UPPER" transform="translate(7.000000, 5.000000)" fill-opacity="0">
                        <path d="M0.241104258,30.3350128 C0.241104258,30.3350128 0.189207181,32.6252371 0.585400518,33.743216 C0.754673229,34.22087 1.08847682,34.9312351 1.49903585,35.5802413 C1.90959487,36.2292474 2.67948017,37.2156256 2.67948017,37.2156256 L18.6326063,37.2383406 C18.6326063,37.2383406 19.3663406,36.480841 19.9617053,35.5802413 C20.5570699,34.6796415 20.5565891,34.4495001 20.7094665,34.0296716 C21.1284411,32.8790935 21.1780538,30.2480915 21.1780538,30.2480915 L0.241104258,30.3350128 Z" id="Path-3"></path>
                        <polygon id="Path-2" points="0.170731707 0.6184305 0.170731707 30.6184305 21.1707317 30.6184305 21.1707317 0.6184305"></polygon>
                    </g>
                    <path d="M2.16004065,84.2502751 C0.911138211,84.6209908 0.194065041,85.951921 0.558577236,87.2220781 C0.783658537,88.0080765 1.38918699,88.6218845 2.16004065,88.8528221 L33.1814228,88.8528221 C34.4303252,88.4821064 35.1473984,87.1511762 34.784878,85.8810191 C34.5597967,85.092995 33.9542683,84.4812128 33.1814228,84.2502751 L2.16004065,84.2502751 Z" id="Shape" fill-opacity="0"></path>
                </g>
                <g id="LWPOLYLINE_5_" class="svg-liquid svg-main-width" transform="translate(5.837398, 58.154626)" stroke="#6C3921">
                    <path d="M0.241300813,1.37996777 C1.50414634,1.53190044 2.76101626,1.04774166 3.60756098,0.0855014198 C5.04768293,1.72029695 7.51560976,1.85804924 9.12304878,0.393418297 C9.22861789,0.296181389 9.33020325,0.192867173 9.42581301,0.0855014198 C10.8639431,1.72029695 13.3338618,1.85804924 14.9413008,0.393418297 C15.0488618,0.296181389 15.1484553,0.192867173 15.244065,0.0855014198 C16.6821951,1.72029695 19.1521138,1.85804924 20.7595528,0.393418297 C20.865122,0.296181389 20.9667073,0.192867173 21.0623171,0.0855014198 C22.0702033,1.23006087 23.635813,1.68180734 25.0858943,1.24221548" id="Shape"></path>
                </g>
                <g id="LWPOLYLINE_6_" class="svg-liquid svg-drop" transform="translate(16.508130, 94.185371)" stroke="#6C3921" stroke-width="0.708999991">
                    <path d="M1.82853659,8.79994024 C2.11138211,8.76955371 2.3703252,8.63585296 2.56154472,8.42112145 C2.85434959,7.97950382 3.0654878,7.48724197 3.18300813,6.96864513 C3.3901626,5.46552458 3.2447561,3.93404327 2.76670732,2.49777309 C2.5695122,1.79280551 2.31853659,1.10404407 2.01776423,0.439591858 C1.95004065,0.334251874 1.81060976,0.30386534 1.70703252,0.370715715 C1.67914634,0.388947635 1.6552439,0.413256862 1.63731707,0.439591858 C1.33455285,1.10404407 1.08357724,1.79280551 0.888373984,2.49777309 C0.408333333,3.93404327 0.266910569,5.46552458 0.472073171,6.96864513 C0.591585366,7.48724197 0.802723577,7.97950382 1.09353659,8.42112145 C1.28674797,8.63585296 1.54768293,8.76955371 1.82853659,8.79994024 Z" id="Shape"></path>
                </g>
                <g id="LWPOLYLINE_7_" class="svg-liquid svg-drop" transform="translate(16.508130, 106.339984)" stroke="#6C3921" stroke-width="0.708999991">
                    <path d="M1.82853659,8.59938912 C2.11138211,8.56900258 2.3703252,8.43327607 2.56154472,8.21854456 C2.85434959,7.77692693 3.0654878,7.28669085 3.18300813,6.768094 C3.3901626,5.26497346 3.2447561,3.73349214 2.76670732,2.29722197 C2.5695122,1.59225438 2.31853659,0.903492944 2.01776423,0.239040734 C1.95004065,0.131674981 1.81060976,0.101288447 1.70703252,0.17016459 C1.67914634,0.188396511 1.6552439,0.212705738 1.63731707,0.239040734 C1.33455285,0.903492944 1.08357724,1.59225438 0.888373984,2.29722197 C0.408333333,3.73349214 0.266910569,5.26497346 0.472073171,6.768094 C0.591585366,7.28669085 0.802723577,7.77692693 1.09353659,8.21854456 C1.28674797,8.43327607 1.54768293,8.56900258 1.82853659,8.59938912 Z" id="Shape"></path>
                </g>
                <g id="LWPOLYLINE_8_" class="svg-liquid svg-drop" transform="translate(16.508130, 117.768115)" stroke="#6C3921" stroke-width="0.708999991">
                    <path d="M1.82853659,8.78499146 C2.11138211,8.75460493 2.3703252,8.62090418 2.56154472,8.40617267 C2.85434959,7.96252928 3.0654878,7.4722932 3.18300813,6.95369635 C3.3901626,5.4505758 3.2447561,3.91909449 2.76670732,2.48282432 C2.5695122,1.77785673 2.31853659,1.08909529 2.01776423,0.424643081 C1.95004065,0.317277327 1.81060976,0.288916562 1.70703252,0.355766937 C1.67914634,0.373998857 1.6552439,0.398308085 1.63731707,0.424643081 C1.33455285,1.08909529 1.08357724,1.77785673 0.888373984,2.48282432 C0.408333333,3.91909449 0.266910569,5.4505758 0.472073171,6.95369635 C0.591585366,7.4722932 0.802723577,7.96252928 1.09353659,8.40617267 C1.28674797,8.61887841 1.54768293,8.75460493 1.82853659,8.78499146 Z" id="Shape"></path>
                </g>
            </g>
        </g>
    </g>
</svg>
